<?xml version="1.0" encoding="utf-8"?>
<!-- Generator: Adobe Illustrator 24.0.1, SVG Export Plug-In . SVG Version: 6.00 Build 0)  -->
<svg version="1.1" id="Logo_x5F_Centered_x5F_Black"
	 xmlns="http://www.w3.org/2000/svg" xmlns:xlink="http://www.w3.org/1999/xlink" x="0px" y="0px" viewBox="0 0 500 280"
	 style="enable-background:new 0 0 500 280;" xml:space="preserve">
<style type="text/css">
	.st0{fill-rule:evenodd;clip-rule:evenodd;}
</style>
<g>
	<path class="st0" d="M198.6,140.7c-0.3-0.4-0.3-0.9,0-1.3c10.5-13.1,25-20.9,39.8-20.1c1.6-3.1,3.7-6.1,6-8.7
		c-1.6-0.3-3.2-0.5-4.8-0.6c-13.8-0.6-27.4,4.1-37.8,13.2c-3.2,2.6-6.1,5.5-8.7,8.7c0,0,0,0-0.1,0c-0.2,0.1-0.4,0.1-0.5-0.1
		c-3-5.3-5.3-10.9-7-16.7l0-0.1c-0.5-1.2-1.4-2.2-2.7-2.7c-1-0.4-2.2-0.4-3.2,0.1c-1.9,1-2.9,3.2-2.5,5.3l0,0.1
		c2.1,7.6,5.3,14.9,9.5,21.6c0.2,0.4,0.2,0.8,0,1.2c-4.2,6.7-7.4,14-9.5,21.7l0,0.1v0.1c0,1.9,1.1,3.7,2.9,4.5
		c0.5,0.2,1.1,0.4,1.7,0.4c1.5,0,2.9-0.8,3.7-2.1l0.1-0.1l0-0.1c1.7-5.8,4-11.5,7-16.7c0,0,0,0,0-0.1c0.1-0.1,0.4-0.2,0.5,0
		c2.6,3.2,5.6,6.1,8.7,8.7c9.6,8.4,21.9,13.1,34.7,13.4c1,0,2.1,0,3.1-0.1c1.6-0.1,3.2-0.3,4.8-0.6c-2.3-2.7-4.3-5.6-6-8.7
		C223.6,161.5,209.1,153.8,198.6,140.7z"/>
	<path class="st0" d="M278.1,95.2c-13.4,0-25.5,5.9-33.7,15.3c9.1,1.6,17.6,5.6,24.7,11.7c4.9,4,9.3,8.7,12.9,13.9l2.1,3.1
		c0.3,0.5,0.3,1.1,0,1.6l-2.1,3.1c-3.7,5.2-8,9.9-12.9,13.9c-7.1,6.1-15.6,10.1-24.7,11.7c8.2,9.4,20.3,15.3,33.7,15.3
		c24.7,0,44.8-20.1,44.8-44.8S302.8,95.2,278.1,95.2z"/>
	<path class="st0" d="M238.4,160.8c0.2,0,0.5,0,0.7,0c17-1.2,29-13.5,34.1-20c0.4-0.5,0.4-1.1,0-1.6c-5.2-6.5-17.1-18.8-34.1-20
		c-0.2,0-0.5,0-0.7,0c-3.3,6.2-5.1,13.3-5.1,20.8C233.3,147.5,235.1,154.6,238.4,160.8z M256.4,135.4c0.2,0,0.4,0,0.5,0
		c2.5,0.3,4.4,2.6,4.1,5.2c-0.3,2.5-2.6,4.4-5.2,4.1c-2.3-0.3-4.1-2.3-4.1-4.6C251.7,137.4,253.8,135.4,256.4,135.4z"/>
</g>
</svg>
