<svg width="469" height="336" viewBox="0 0 469 336" fill="none" xmlns="http://www.w3.org/2000/svg">
<g clip-path="url(#clip0_3188_58943)">
<path fill-rule="evenodd" clip-rule="evenodd" d="M452 171.5C452 173.985 449.985 176 447.5 176C445.015 176 443 173.985 443 171.5C443 169.015 445.015 167 447.5 167C449.985 167 452 169.015 452 171.5ZM452 188.5C452 190.985 449.985 193 447.5 193C445.015 193 443 190.985 443 188.5C443 186.015 445.015 184 447.5 184C449.985 184 452 186.015 452 188.5ZM447.5 210C449.985 210 452 207.985 452 205.5C452 203.015 449.985 201 447.5 201C445.015 201 443 203.015 443 205.5C443 207.985 445.015 210 447.5 210ZM452 222.5C452 224.985 449.985 227 447.5 227C445.015 227 443 224.985 443 222.5C443 220.015 445.015 218 447.5 218C449.985 218 452 220.015 452 222.5ZM447.5 244C449.985 244 452 241.985 452 239.5C452 237.015 449.985 235 447.5 235C445.015 235 443 237.015 443 239.5C443 241.985 445.015 244 447.5 244Z" fill="url(#paint0_radial_3188_58943)"/>
<path fill-rule="evenodd" clip-rule="evenodd" d="M481.5 210C479.015 210 477 207.985 477 205.5C477 203.015 479.015 201 481.5 201C483.985 201 486 203.015 486 205.5C486 207.985 483.985 210 481.5 210ZM464.5 210C462.015 210 460 207.985 460 205.5C460 203.015 462.015 201 464.5 201C466.985 201 469 203.015 469 205.5C469 207.985 466.985 210 464.5 210ZM443 205.5C443 207.985 445.015 210 447.5 210C449.985 210 452 207.985 452 205.5C452 203.015 449.985 201 447.5 201C445.015 201 443 203.015 443 205.5ZM430.5 210C428.015 210 426 207.985 426 205.5C426 203.015 428.015 201 430.5 201C432.985 201 435 203.015 435 205.5C435 207.985 432.985 210 430.5 210ZM409 205.5C409 207.985 411.015 210 413.5 210C415.985 210 418 207.985 418 205.5C418 203.015 415.985 201 413.5 201C411.015 201 409 203.015 409 205.5Z" fill="url(#paint1_radial_3188_58943)"/>
<path fill-rule="evenodd" clip-rule="evenodd" d="M452 256.5C452 258.985 449.985 261 447.5 261C445.015 261 443 258.985 443 256.5C443 254.015 445.015 252 447.5 252C449.985 252 452 254.015 452 256.5ZM452 273.5C452 275.985 449.985 278 447.5 278C445.015 278 443 275.985 443 273.5C443 271.015 445.015 269 447.5 269C449.985 269 452 271.015 452 273.5ZM447.5 295C449.985 295 452 292.985 452 290.5C452 288.015 449.985 286 447.5 286C445.015 286 443 288.015 443 290.5C443 292.985 445.015 295 447.5 295ZM452 307.5C452 309.985 449.985 312 447.5 312C445.015 312 443 309.985 443 307.5C443 305.015 445.015 303 447.5 303C449.985 303 452 305.015 452 307.5ZM447.5 329C449.985 329 452 326.985 452 324.5C452 322.015 449.985 320 447.5 320C445.015 320 443 322.015 443 324.5C443 326.985 445.015 329 447.5 329Z" fill="url(#paint2_radial_3188_58943)"/>
<path fill-rule="evenodd" clip-rule="evenodd" d="M481.5 295C479.015 295 477 292.985 477 290.5C477 288.015 479.015 286 481.5 286C483.985 286 486 288.015 486 290.5C486 292.985 483.985 295 481.5 295ZM464.5 295C462.015 295 460 292.985 460 290.5C460 288.015 462.015 286 464.5 286C466.985 286 469 288.015 469 290.5C469 292.985 466.985 295 464.5 295ZM443 290.5C443 292.985 445.015 295 447.5 295C449.985 295 452 292.985 452 290.5C452 288.015 449.985 286 447.5 286C445.015 286 443 288.015 443 290.5ZM430.5 295C428.015 295 426 292.985 426 290.5C426 288.015 428.015 286 430.5 286C432.985 286 435 288.015 435 290.5C435 292.985 432.985 295 430.5 295ZM409 290.5C409 292.985 411.015 295 413.5 295C415.985 295 418 292.985 418 290.5C418 288.015 415.985 286 413.5 286C411.015 286 409 288.015 409 290.5Z" fill="url(#paint3_radial_3188_58943)"/>
<path fill-rule="evenodd" clip-rule="evenodd" d="M367 171.5C367 173.985 364.985 176 362.5 176C360.015 176 358 173.985 358 171.5C358 169.015 360.015 167 362.5 167C364.985 167 367 169.015 367 171.5ZM367 188.5C367 190.985 364.985 193 362.5 193C360.015 193 358 190.985 358 188.5C358 186.015 360.015 184 362.5 184C364.985 184 367 186.015 367 188.5ZM362.5 210C364.985 210 367 207.985 367 205.5C367 203.015 364.985 201 362.5 201C360.015 201 358 203.015 358 205.5C358 207.985 360.015 210 362.5 210ZM367 222.5C367 224.985 364.985 227 362.5 227C360.015 227 358 224.985 358 222.5C358 220.015 360.015 218 362.5 218C364.985 218 367 220.015 367 222.5ZM362.5 244C364.985 244 367 241.985 367 239.5C367 237.015 364.985 235 362.5 235C360.015 235 358 237.015 358 239.5C358 241.985 360.015 244 362.5 244Z" fill="url(#paint4_radial_3188_58943)"/>
<path fill-rule="evenodd" clip-rule="evenodd" d="M396.5 210C394.015 210 392 207.985 392 205.5C392 203.015 394.015 201 396.5 201C398.985 201 401 203.015 401 205.5C401 207.985 398.985 210 396.5 210ZM379.5 210C377.015 210 375 207.985 375 205.5C375 203.015 377.015 201 379.5 201C381.985 201 384 203.015 384 205.5C384 207.985 381.985 210 379.5 210ZM358 205.5C358 207.985 360.015 210 362.5 210C364.985 210 367 207.985 367 205.5C367 203.015 364.985 201 362.5 201C360.015 201 358 203.015 358 205.5ZM345.5 210C343.015 210 341 207.985 341 205.5C341 203.015 343.015 201 345.5 201C347.985 201 350 203.015 350 205.5C350 207.985 347.985 210 345.5 210ZM324 205.5C324 207.985 326.015 210 328.5 210C330.985 210 333 207.985 333 205.5C333 203.015 330.985 201 328.5 201C326.015 201 324 203.015 324 205.5Z" fill="url(#paint5_radial_3188_58943)"/>
<path fill-rule="evenodd" clip-rule="evenodd" d="M282 171.5C282 173.985 279.985 176 277.5 176C275.015 176 273 173.985 273 171.5C273 169.015 275.015 167 277.5 167C279.985 167 282 169.015 282 171.5ZM282 188.5C282 190.985 279.985 193 277.5 193C275.015 193 273 190.985 273 188.5C273 186.015 275.015 184 277.5 184C279.985 184 282 186.015 282 188.5ZM277.5 210C279.985 210 282 207.985 282 205.5C282 203.015 279.985 201 277.5 201C275.015 201 273 203.015 273 205.5C273 207.985 275.015 210 277.5 210ZM282 222.5C282 224.985 279.985 227 277.5 227C275.015 227 273 224.985 273 222.5C273 220.015 275.015 218 277.5 218C279.985 218 282 220.015 282 222.5ZM277.5 244C279.985 244 282 241.985 282 239.5C282 237.015 279.985 235 277.5 235C275.015 235 273 237.015 273 239.5C273 241.985 275.015 244 277.5 244Z" fill="url(#paint6_radial_3188_58943)"/>
<path fill-rule="evenodd" clip-rule="evenodd" d="M311.5 210C309.015 210 307 207.985 307 205.5C307 203.015 309.015 201 311.5 201C313.985 201 316 203.015 316 205.5C316 207.985 313.985 210 311.5 210ZM294.5 210C292.015 210 290 207.985 290 205.5C290 203.015 292.015 201 294.5 201C296.985 201 299 203.015 299 205.5C299 207.985 296.985 210 294.5 210ZM273 205.5C273 207.985 275.015 210 277.5 210C279.985 210 282 207.985 282 205.5C282 203.015 279.985 201 277.5 201C275.015 201 273 203.015 273 205.5ZM260.5 210C258.015 210 256 207.985 256 205.5C256 203.015 258.015 201 260.5 201C262.985 201 265 203.015 265 205.5C265 207.985 262.985 210 260.5 210ZM239 205.5C239 207.985 241.015 210 243.5 210C245.985 210 248 207.985 248 205.5C248 203.015 245.985 201 243.5 201C241.015 201 239 203.015 239 205.5Z" fill="url(#paint7_radial_3188_58943)"/>
<path fill-rule="evenodd" clip-rule="evenodd" d="M197 171.5C197 173.985 194.985 176 192.5 176C190.015 176 188 173.985 188 171.5C188 169.015 190.015 167 192.5 167C194.985 167 197 169.015 197 171.5ZM197 188.5C197 190.985 194.985 193 192.5 193C190.015 193 188 190.985 188 188.5C188 186.015 190.015 184 192.5 184C194.985 184 197 186.015 197 188.5ZM192.5 210C194.985 210 197 207.985 197 205.5C197 203.015 194.985 201 192.5 201C190.015 201 188 203.015 188 205.5C188 207.985 190.015 210 192.5 210ZM197 222.5C197 224.985 194.985 227 192.5 227C190.015 227 188 224.985 188 222.5C188 220.015 190.015 218 192.5 218C194.985 218 197 220.015 197 222.5ZM192.5 244C194.985 244 197 241.985 197 239.5C197 237.015 194.985 235 192.5 235C190.015 235 188 237.015 188 239.5C188 241.985 190.015 244 192.5 244Z" fill="url(#paint8_radial_3188_58943)"/>
<path fill-rule="evenodd" clip-rule="evenodd" d="M226.5 210C224.015 210 222 207.985 222 205.5C222 203.015 224.015 201 226.5 201C228.985 201 231 203.015 231 205.5C231 207.985 228.985 210 226.5 210ZM209.5 210C207.015 210 205 207.985 205 205.5C205 203.015 207.015 201 209.5 201C211.985 201 214 203.015 214 205.5C214 207.985 211.985 210 209.5 210ZM188 205.5C188 207.985 190.015 210 192.5 210C194.985 210 197 207.985 197 205.5C197 203.015 194.985 201 192.5 201C190.015 201 188 203.015 188 205.5ZM175.5 210C173.015 210 171 207.985 171 205.5C171 203.015 173.015 201 175.5 201C177.985 201 180 203.015 180 205.5C180 207.985 177.985 210 175.5 210ZM154 205.5C154 207.985 156.015 210 158.5 210C160.985 210 163 207.985 163 205.5C163 203.015 160.985 201 158.5 201C156.015 201 154 203.015 154 205.5Z" fill="url(#paint9_radial_3188_58943)"/>
<path fill-rule="evenodd" clip-rule="evenodd" d="M112 171.5C112 173.985 109.985 176 107.5 176C105.015 176 103 173.985 103 171.5C103 169.015 105.015 167 107.5 167C109.985 167 112 169.015 112 171.5ZM112 188.5C112 190.985 109.985 193 107.5 193C105.015 193 103 190.985 103 188.5C103 186.015 105.015 184 107.5 184C109.985 184 112 186.015 112 188.5ZM107.5 210C109.985 210 112 207.985 112 205.5C112 203.015 109.985 201 107.5 201C105.015 201 103 203.015 103 205.5C103 207.985 105.015 210 107.5 210ZM112 222.5C112 224.985 109.985 227 107.5 227C105.015 227 103 224.985 103 222.5C103 220.015 105.015 218 107.5 218C109.985 218 112 220.015 112 222.5ZM107.5 244C109.985 244 112 241.985 112 239.5C112 237.015 109.985 235 107.5 235C105.015 235 103 237.015 103 239.5C103 241.985 105.015 244 107.5 244Z" fill="url(#paint10_radial_3188_58943)"/>
<path fill-rule="evenodd" clip-rule="evenodd" d="M141.5 210C139.015 210 137 207.985 137 205.5C137 203.015 139.015 201 141.5 201C143.985 201 146 203.015 146 205.5C146 207.985 143.985 210 141.5 210ZM124.5 210C122.015 210 120 207.985 120 205.5C120 203.015 122.015 201 124.5 201C126.985 201 129 203.015 129 205.5C129 207.985 126.985 210 124.5 210ZM103 205.5C103 207.985 105.015 210 107.5 210C109.985 210 112 207.985 112 205.5C112 203.015 109.985 201 107.5 201C105.015 201 103 203.015 103 205.5ZM90.5 210C88.0147 210 86 207.985 86 205.5C86 203.015 88.0147 201 90.5 201C92.9853 201 95 203.015 95 205.5C95 207.985 92.9853 210 90.5 210ZM69 205.5C69 207.985 71.0147 210 73.5 210C75.9853 210 78 207.985 78 205.5C78 203.015 75.9853 201 73.5 201C71.0147 201 69 203.015 69 205.5Z" fill="url(#paint11_radial_3188_58943)"/>
<path fill-rule="evenodd" clip-rule="evenodd" d="M27 171.5C27 173.985 24.9853 176 22.5 176C20.0147 176 18 173.985 18 171.5C18 169.015 20.0147 167 22.5 167C24.9853 167 27 169.015 27 171.5ZM27 188.5C27 190.985 24.9853 193 22.5 193C20.0147 193 18 190.985 18 188.5C18 186.015 20.0147 184 22.5 184C24.9853 184 27 186.015 27 188.5ZM22.5 210C24.9853 210 27 207.985 27 205.5C27 203.015 24.9853 201 22.5 201C20.0147 201 18 203.015 18 205.5C18 207.985 20.0147 210 22.5 210ZM27 222.5C27 224.985 24.9853 227 22.5 227C20.0147 227 18 224.985 18 222.5C18 220.015 20.0147 218 22.5 218C24.9853 218 27 220.015 27 222.5ZM22.5 244C24.9853 244 27 241.985 27 239.5C27 237.015 24.9853 235 22.5 235C20.0147 235 18 237.015 18 239.5C18 241.985 20.0147 244 22.5 244Z" fill="url(#paint12_radial_3188_58943)"/>
<path fill-rule="evenodd" clip-rule="evenodd" d="M56.5 210C54.0147 210 52 207.985 52 205.5C52 203.015 54.0147 201 56.5 201C58.9853 201 61 203.015 61 205.5C61 207.985 58.9853 210 56.5 210ZM39.5 210C37.0147 210 35 207.985 35 205.5C35 203.015 37.0147 201 39.5 201C41.9853 201 44 203.015 44 205.5C44 207.985 41.9853 210 39.5 210ZM18 205.5C18 207.985 20.0147 210 22.5 210C24.9853 210 27 207.985 27 205.5C27 203.015 24.9853 201 22.5 201C20.0147 201 18 203.015 18 205.5ZM5.5 210C3.01472 210 1 207.985 1 205.5C1 203.015 3.01472 201 5.5 201C7.98528 201 10 203.015 10 205.5C10 207.985 7.98528 210 5.5 210ZM-16 205.5C-16 207.985 -13.9853 210 -11.5 210C-9.01472 210 -7 207.985 -7 205.5C-7 203.015 -9.01472 201 -11.5 201C-13.9853 201 -16 203.015 -16 205.5Z" fill="url(#paint13_radial_3188_58943)"/>
<path fill-rule="evenodd" clip-rule="evenodd" d="M367 256.5C367 258.985 364.985 261 362.5 261C360.015 261 358 258.985 358 256.5C358 254.015 360.015 252 362.5 252C364.985 252 367 254.015 367 256.5ZM367 273.5C367 275.985 364.985 278 362.5 278C360.015 278 358 275.985 358 273.5C358 271.015 360.015 269 362.5 269C364.985 269 367 271.015 367 273.5ZM362.5 295C364.985 295 367 292.985 367 290.5C367 288.015 364.985 286 362.5 286C360.015 286 358 288.015 358 290.5C358 292.985 360.015 295 362.5 295ZM367 307.5C367 309.985 364.985 312 362.5 312C360.015 312 358 309.985 358 307.5C358 305.015 360.015 303 362.5 303C364.985 303 367 305.015 367 307.5ZM362.5 329C364.985 329 367 326.985 367 324.5C367 322.015 364.985 320 362.5 320C360.015 320 358 322.015 358 324.5C358 326.985 360.015 329 362.5 329Z" fill="url(#paint14_radial_3188_58943)"/>
<path fill-rule="evenodd" clip-rule="evenodd" d="M396.5 295C394.015 295 392 292.985 392 290.5C392 288.015 394.015 286 396.5 286C398.985 286 401 288.015 401 290.5C401 292.985 398.985 295 396.5 295ZM379.5 295C377.015 295 375 292.985 375 290.5C375 288.015 377.015 286 379.5 286C381.985 286 384 288.015 384 290.5C384 292.985 381.985 295 379.5 295ZM358 290.5C358 292.985 360.015 295 362.5 295C364.985 295 367 292.985 367 290.5C367 288.015 364.985 286 362.5 286C360.015 286 358 288.015 358 290.5ZM345.5 295C343.015 295 341 292.985 341 290.5C341 288.015 343.015 286 345.5 286C347.985 286 350 288.015 350 290.5C350 292.985 347.985 295 345.5 295ZM324 290.5C324 292.985 326.015 295 328.5 295C330.985 295 333 292.985 333 290.5C333 288.015 330.985 286 328.5 286C326.015 286 324 288.015 324 290.5Z" fill="url(#paint15_radial_3188_58943)"/>
<path fill-rule="evenodd" clip-rule="evenodd" d="M282 256.5C282 258.985 279.985 261 277.5 261C275.015 261 273 258.985 273 256.5C273 254.015 275.015 252 277.5 252C279.985 252 282 254.015 282 256.5ZM282 273.5C282 275.985 279.985 278 277.5 278C275.015 278 273 275.985 273 273.5C273 271.015 275.015 269 277.5 269C279.985 269 282 271.015 282 273.5ZM277.5 295C279.985 295 282 292.985 282 290.5C282 288.015 279.985 286 277.5 286C275.015 286 273 288.015 273 290.5C273 292.985 275.015 295 277.5 295ZM282 307.5C282 309.985 279.985 312 277.5 312C275.015 312 273 309.985 273 307.5C273 305.015 275.015 303 277.5 303C279.985 303 282 305.015 282 307.5ZM277.5 329C279.985 329 282 326.985 282 324.5C282 322.015 279.985 320 277.5 320C275.015 320 273 322.015 273 324.5C273 326.985 275.015 329 277.5 329Z" fill="url(#paint16_radial_3188_58943)"/>
<path fill-rule="evenodd" clip-rule="evenodd" d="M311.5 295C309.015 295 307 292.985 307 290.5C307 288.015 309.015 286 311.5 286C313.985 286 316 288.015 316 290.5C316 292.985 313.985 295 311.5 295ZM294.5 295C292.015 295 290 292.985 290 290.5C290 288.015 292.015 286 294.5 286C296.985 286 299 288.015 299 290.5C299 292.985 296.985 295 294.5 295ZM273 290.5C273 292.985 275.015 295 277.5 295C279.985 295 282 292.985 282 290.5C282 288.015 279.985 286 277.5 286C275.015 286 273 288.015 273 290.5ZM260.5 295C258.015 295 256 292.985 256 290.5C256 288.015 258.015 286 260.5 286C262.985 286 265 288.015 265 290.5C265 292.985 262.985 295 260.5 295ZM239 290.5C239 292.985 241.015 295 243.5 295C245.985 295 248 292.985 248 290.5C248 288.015 245.985 286 243.5 286C241.015 286 239 288.015 239 290.5Z" fill="url(#paint17_radial_3188_58943)"/>
<path fill-rule="evenodd" clip-rule="evenodd" d="M197 256.5C197 258.985 194.985 261 192.5 261C190.015 261 188 258.985 188 256.5C188 254.015 190.015 252 192.5 252C194.985 252 197 254.015 197 256.5ZM197 273.5C197 275.985 194.985 278 192.5 278C190.015 278 188 275.985 188 273.5C188 271.015 190.015 269 192.5 269C194.985 269 197 271.015 197 273.5ZM192.5 295C194.985 295 197 292.985 197 290.5C197 288.015 194.985 286 192.5 286C190.015 286 188 288.015 188 290.5C188 292.985 190.015 295 192.5 295ZM197 307.5C197 309.985 194.985 312 192.5 312C190.015 312 188 309.985 188 307.5C188 305.015 190.015 303 192.5 303C194.985 303 197 305.015 197 307.5ZM192.5 329C194.985 329 197 326.985 197 324.5C197 322.015 194.985 320 192.5 320C190.015 320 188 322.015 188 324.5C188 326.985 190.015 329 192.5 329Z" fill="url(#paint18_radial_3188_58943)"/>
<path fill-rule="evenodd" clip-rule="evenodd" d="M226.5 295C224.015 295 222 292.985 222 290.5C222 288.015 224.015 286 226.5 286C228.985 286 231 288.015 231 290.5C231 292.985 228.985 295 226.5 295ZM209.5 295C207.015 295 205 292.985 205 290.5C205 288.015 207.015 286 209.5 286C211.985 286 214 288.015 214 290.5C214 292.985 211.985 295 209.5 295ZM188 290.5C188 292.985 190.015 295 192.5 295C194.985 295 197 292.985 197 290.5C197 288.015 194.985 286 192.5 286C190.015 286 188 288.015 188 290.5ZM175.5 295C173.015 295 171 292.985 171 290.5C171 288.015 173.015 286 175.5 286C177.985 286 180 288.015 180 290.5C180 292.985 177.985 295 175.5 295ZM154 290.5C154 292.985 156.015 295 158.5 295C160.985 295 163 292.985 163 290.5C163 288.015 160.985 286 158.5 286C156.015 286 154 288.015 154 290.5Z" fill="url(#paint19_radial_3188_58943)"/>
<path fill-rule="evenodd" clip-rule="evenodd" d="M112 256.5C112 258.985 109.985 261 107.5 261C105.015 261 103 258.985 103 256.5C103 254.015 105.015 252 107.5 252C109.985 252 112 254.015 112 256.5ZM112 273.5C112 275.985 109.985 278 107.5 278C105.015 278 103 275.985 103 273.5C103 271.015 105.015 269 107.5 269C109.985 269 112 271.015 112 273.5ZM107.5 295C109.985 295 112 292.985 112 290.5C112 288.015 109.985 286 107.5 286C105.015 286 103 288.015 103 290.5C103 292.985 105.015 295 107.5 295ZM112 307.5C112 309.985 109.985 312 107.5 312C105.015 312 103 309.985 103 307.5C103 305.015 105.015 303 107.5 303C109.985 303 112 305.015 112 307.5ZM107.5 329C109.985 329 112 326.985 112 324.5C112 322.015 109.985 320 107.5 320C105.015 320 103 322.015 103 324.5C103 326.985 105.015 329 107.5 329Z" fill="url(#paint20_radial_3188_58943)"/>
<path fill-rule="evenodd" clip-rule="evenodd" d="M141.5 295C139.015 295 137 292.985 137 290.5C137 288.015 139.015 286 141.5 286C143.985 286 146 288.015 146 290.5C146 292.985 143.985 295 141.5 295ZM124.5 295C122.015 295 120 292.985 120 290.5C120 288.015 122.015 286 124.5 286C126.985 286 129 288.015 129 290.5C129 292.985 126.985 295 124.5 295ZM103 290.5C103 292.985 105.015 295 107.5 295C109.985 295 112 292.985 112 290.5C112 288.015 109.985 286 107.5 286C105.015 286 103 288.015 103 290.5ZM90.5 295C88.0147 295 86 292.985 86 290.5C86 288.015 88.0147 286 90.5 286C92.9853 286 95 288.015 95 290.5C95 292.985 92.9853 295 90.5 295ZM69 290.5C69 292.985 71.0147 295 73.5 295C75.9853 295 78 292.985 78 290.5C78 288.015 75.9853 286 73.5 286C71.0147 286 69 288.015 69 290.5Z" fill="url(#paint21_radial_3188_58943)"/>
<path fill-rule="evenodd" clip-rule="evenodd" d="M27 256.5C27 258.985 24.9853 261 22.5 261C20.0147 261 18 258.985 18 256.5C18 254.015 20.0147 252 22.5 252C24.9853 252 27 254.015 27 256.5ZM27 273.5C27 275.985 24.9853 278 22.5 278C20.0147 278 18 275.985 18 273.5C18 271.015 20.0147 269 22.5 269C24.9853 269 27 271.015 27 273.5ZM22.5 295C24.9853 295 27 292.985 27 290.5C27 288.015 24.9853 286 22.5 286C20.0147 286 18 288.015 18 290.5C18 292.985 20.0147 295 22.5 295ZM27 307.5C27 309.985 24.9853 312 22.5 312C20.0147 312 18 309.985 18 307.5C18 305.015 20.0147 303 22.5 303C24.9853 303 27 305.015 27 307.5ZM22.5 329C24.9853 329 27 326.985 27 324.5C27 322.015 24.9853 320 22.5 320C20.0147 320 18 322.015 18 324.5C18 326.985 20.0147 329 22.5 329Z" fill="url(#paint22_radial_3188_58943)"/>
<path fill-rule="evenodd" clip-rule="evenodd" d="M56.5 295C54.0147 295 52 292.985 52 290.5C52 288.015 54.0147 286 56.5 286C58.9853 286 61 288.015 61 290.5C61 292.985 58.9853 295 56.5 295ZM39.5 295C37.0147 295 35 292.985 35 290.5C35 288.015 37.0147 286 39.5 286C41.9853 286 44 288.015 44 290.5C44 292.985 41.9853 295 39.5 295ZM18 290.5C18 292.985 20.0147 295 22.5 295C24.9853 295 27 292.985 27 290.5C27 288.015 24.9853 286 22.5 286C20.0147 286 18 288.015 18 290.5ZM5.5 295C3.01472 295 1 292.985 1 290.5C1 288.015 3.01472 286 5.5 286C7.98528 286 10 288.015 10 290.5C10 292.985 7.98528 295 5.5 295ZM-16 290.5C-16 292.985 -13.9853 295 -11.5 295C-9.01472 295 -7 292.985 -7 290.5C-7 288.015 -9.01472 286 -11.5 286C-13.9853 286 -16 288.015 -16 290.5Z" fill="url(#paint23_radial_3188_58943)"/>
<circle cx="92.498" cy="296.512" r="29.5" transform="rotate(-50 92.498 296.512)" fill="#2C2C2C"/>
<path fill-rule="evenodd" clip-rule="evenodd" d="M100.871 289.827L105.649 306.504L88.328 305.365L99.8659 301.84L100.87 289.824L100.871 289.827ZM80.7301 286.418L99.4523 288.683L98.4479 300.699L86.9081 304.223L80.7301 286.418Z" fill="black"/>
<circle cx="128.503" cy="208.498" r="44.5" transform="rotate(-24 128.503 208.498)" fill="#2C2C2C"/>
<path fill-rule="evenodd" clip-rule="evenodd" d="M144.282 204.978L139.733 230.747L117.001 217.75L134.976 220.599L144.283 204.973L144.282 204.978ZM119.229 187.037L143.115 202.488L133.808 218.115L115.832 215.262L119.229 187.037Z" fill="black"/>
<circle cx="340.501" cy="208.508" r="44.5" transform="rotate(25 340.501 208.508)" fill="#2C2C2C"/>
<path fill-rule="evenodd" clip-rule="evenodd" d="M353.512 218.102L331.079 231.576L325.975 205.893L335.617 221.328L353.517 218.101L353.512 218.102ZM350.616 187.425L354.626 215.589L336.726 218.817L327.085 203.378L350.616 187.425Z" fill="black"/>
<circle cx="376.505" cy="296.498" r="29.5" transform="rotate(50 376.505 296.498)" fill="#2C2C2C"/>
<path fill-rule="evenodd" clip-rule="evenodd" d="M381.633 305.906L364.38 307.717L368.509 290.856L369.978 302.831L381.637 305.907L381.633 305.906ZM388.488 286.664L383.006 304.708L371.348 301.633L369.881 289.656L388.488 286.664Z" fill="black"/>
<circle cx="424.497" cy="232.498" r="16" transform="rotate(50 424.497 232.498)" fill="#2C2C2C"/>
<path fill-rule="evenodd" clip-rule="evenodd" d="M427.278 237.606L417.92 238.588L420.16 229.443L420.956 235.938L427.28 237.606L427.278 237.606ZM430.996 227.169L428.023 236.956L421.699 235.288L420.904 228.792L430.996 227.169Z" fill="black"/>
<circle cx="44.5023" cy="232.501" r="16" transform="rotate(-50 44.5023 232.501)" fill="#2C2C2C"/>
<path fill-rule="evenodd" clip-rule="evenodd" d="M49.052 228.879L51.6439 237.924L42.2493 237.306L48.5071 235.394L49.0519 228.877L49.052 228.879ZM38.1284 227.03L48.2828 228.258L47.738 234.775L41.4792 236.687L38.1284 227.03Z" fill="black"/>
<circle cx="234.5" cy="293.5" r="76.5" fill="#2C2C2C"/>
<path fill-rule="evenodd" clip-rule="evenodd" d="M231.917 273.4C236.426 268.252 243.04 265 250.415 265C264.001 265 274.999 276.027 274.999 289.614C274.999 303.201 263.994 314.221 250.408 314.221C243.032 314.221 236.424 310.967 231.914 305.825C236.92 304.943 241.612 302.74 245.486 299.402C248.185 297.191 250.576 294.623 252.59 291.769L253.729 290.062C253.904 289.789 253.904 289.439 253.729 289.173L252.583 287.459C250.569 284.611 248.178 282.044 245.479 279.826C241.605 276.495 236.914 274.285 231.915 273.403C230.643 274.858 229.539 276.459 228.638 278.179C220.534 277.78 212.577 282.041 206.794 289.247C206.62 289.457 206.62 289.765 206.794 289.975C212.57 297.181 220.527 301.442 228.631 301.03C229.54 302.758 230.645 304.367 231.924 305.822C231.064 305.976 230.19 306.095 229.316 306.165C228.743 306.214 228.162 306.228 227.589 306.228C220.59 306.081 213.863 303.485 208.57 298.896C206.829 297.447 205.228 295.845 203.781 294.11C203.697 294.026 203.564 294.026 203.487 294.11C203.48 294.117 203.466 294.131 203.466 294.138C201.816 297.035 200.53 300.12 199.621 303.324L199.6 303.373L199.572 303.422C199.117 304.115 198.348 304.542 197.516 304.563C197.201 304.556 196.894 304.486 196.607 304.36C195.649 303.919 195.034 302.961 195.048 301.904V301.806C196.222 297.615 197.977 293.613 200.278 289.912C200.397 289.716 200.397 289.471 200.278 289.275C197.984 285.588 196.229 281.593 195.055 277.409V277.374C194.817 276.206 195.369 275.009 196.418 274.443C196.964 274.177 197.6 274.163 198.159 274.394C198.823 274.652 199.355 275.177 199.628 275.849V275.898C200.53 279.095 201.816 282.174 203.459 285.056C203.522 285.154 203.648 285.175 203.746 285.112C203.749 285.109 203.755 285.105 203.76 285.102C203.765 285.098 203.77 285.095 203.774 285.091C205.221 283.363 206.815 281.768 208.549 280.327C214.276 275.317 221.716 272.714 229.309 273.057C230.183 273.127 231.057 273.246 231.917 273.4ZM247.75 289.184C244.918 285.622 238.353 278.843 229.011 278.192C228.961 278.189 228.911 278.189 228.861 278.188C228.786 278.187 228.712 278.186 228.641 278.178C226.844 281.592 225.823 285.482 225.823 289.61C225.823 293.738 226.844 297.614 228.634 301.029C228.766 301.029 228.892 301.029 229.025 301.015C238.36 300.378 244.918 293.619 247.757 290.051C247.96 289.792 247.96 289.435 247.757 289.177L247.75 289.184ZM241.031 289.911C240.863 291.311 239.597 292.311 238.199 292.143C236.912 291.989 235.947 290.905 235.947 289.61C235.947 288.197 237.094 287.057 238.506 287.057H238.507C238.604 287.057 238.702 287.057 238.8 287.071C240.199 287.239 241.198 288.505 241.031 289.904V289.911Z" fill="black"/>
</g>
<defs>
<radialGradient id="paint0_radial_3188_58943" cx="0" cy="0" r="1" gradientUnits="userSpaceOnUse" gradientTransform="translate(447.5 206) rotate(90) scale(54 54)">
<stop stop-color="#2D3036"/>
<stop offset="1" stop-color="#1B1D21" stop-opacity="0"/>
</radialGradient>
<radialGradient id="paint1_radial_3188_58943" cx="0" cy="0" r="1" gradientUnits="userSpaceOnUse" gradientTransform="translate(447 205.5) rotate(-180) scale(54 54)">
<stop stop-color="#2D3036"/>
<stop offset="1" stop-color="#1B1D21" stop-opacity="0"/>
</radialGradient>
<radialGradient id="paint2_radial_3188_58943" cx="0" cy="0" r="1" gradientUnits="userSpaceOnUse" gradientTransform="translate(447.5 291) rotate(90) scale(54 54)">
<stop stop-color="#2D3036"/>
<stop offset="1" stop-color="#1B1D21" stop-opacity="0"/>
</radialGradient>
<radialGradient id="paint3_radial_3188_58943" cx="0" cy="0" r="1" gradientUnits="userSpaceOnUse" gradientTransform="translate(447 290.5) rotate(-180) scale(54 54)">
<stop stop-color="#2D3036"/>
<stop offset="1" stop-color="#1B1D21" stop-opacity="0"/>
</radialGradient>
<radialGradient id="paint4_radial_3188_58943" cx="0" cy="0" r="1" gradientUnits="userSpaceOnUse" gradientTransform="translate(362.5 206) rotate(90) scale(54 54)">
<stop stop-color="#2D3036"/>
<stop offset="1" stop-color="#1B1D21" stop-opacity="0"/>
</radialGradient>
<radialGradient id="paint5_radial_3188_58943" cx="0" cy="0" r="1" gradientUnits="userSpaceOnUse" gradientTransform="translate(362 205.5) rotate(-180) scale(54 54)">
<stop stop-color="#2D3036"/>
<stop offset="1" stop-color="#1B1D21" stop-opacity="0"/>
</radialGradient>
<radialGradient id="paint6_radial_3188_58943" cx="0" cy="0" r="1" gradientUnits="userSpaceOnUse" gradientTransform="translate(277.5 206) rotate(90) scale(54 54)">
<stop stop-color="#2D3036"/>
<stop offset="1" stop-color="#1B1D21" stop-opacity="0"/>
</radialGradient>
<radialGradient id="paint7_radial_3188_58943" cx="0" cy="0" r="1" gradientUnits="userSpaceOnUse" gradientTransform="translate(277 205.5) rotate(-180) scale(54 54)">
<stop stop-color="#2D3036"/>
<stop offset="1" stop-color="#1B1D21" stop-opacity="0"/>
</radialGradient>
<radialGradient id="paint8_radial_3188_58943" cx="0" cy="0" r="1" gradientUnits="userSpaceOnUse" gradientTransform="translate(192.5 206) rotate(90) scale(54 54)">
<stop stop-color="#2D3036"/>
<stop offset="1" stop-color="#1B1D21" stop-opacity="0"/>
</radialGradient>
<radialGradient id="paint9_radial_3188_58943" cx="0" cy="0" r="1" gradientUnits="userSpaceOnUse" gradientTransform="translate(192 205.5) rotate(-180) scale(54 54)">
<stop stop-color="#2D3036"/>
<stop offset="1" stop-color="#1B1D21" stop-opacity="0"/>
</radialGradient>
<radialGradient id="paint10_radial_3188_58943" cx="0" cy="0" r="1" gradientUnits="userSpaceOnUse" gradientTransform="translate(107.5 206) rotate(90) scale(54 54)">
<stop stop-color="#2D3036"/>
<stop offset="1" stop-color="#1B1D21" stop-opacity="0"/>
</radialGradient>
<radialGradient id="paint11_radial_3188_58943" cx="0" cy="0" r="1" gradientUnits="userSpaceOnUse" gradientTransform="translate(107 205.5) rotate(-180) scale(54 54)">
<stop stop-color="#2D3036"/>
<stop offset="1" stop-color="#1B1D21" stop-opacity="0"/>
</radialGradient>
<radialGradient id="paint12_radial_3188_58943" cx="0" cy="0" r="1" gradientUnits="userSpaceOnUse" gradientTransform="translate(22.5 206) rotate(90) scale(54 54)">
<stop stop-color="#2D3036"/>
<stop offset="1" stop-color="#1B1D21" stop-opacity="0"/>
</radialGradient>
<radialGradient id="paint13_radial_3188_58943" cx="0" cy="0" r="1" gradientUnits="userSpaceOnUse" gradientTransform="translate(22 205.5) rotate(-180) scale(54 54)">
<stop stop-color="#2D3036"/>
<stop offset="1" stop-color="#1B1D21" stop-opacity="0"/>
</radialGradient>
<radialGradient id="paint14_radial_3188_58943" cx="0" cy="0" r="1" gradientUnits="userSpaceOnUse" gradientTransform="translate(362.5 291) rotate(90) scale(54 54)">
<stop stop-color="#2D3036"/>
<stop offset="1" stop-color="#1B1D21" stop-opacity="0"/>
</radialGradient>
<radialGradient id="paint15_radial_3188_58943" cx="0" cy="0" r="1" gradientUnits="userSpaceOnUse" gradientTransform="translate(362 290.5) rotate(-180) scale(54 54)">
<stop stop-color="#2D3036"/>
<stop offset="1" stop-color="#1B1D21" stop-opacity="0"/>
</radialGradient>
<radialGradient id="paint16_radial_3188_58943" cx="0" cy="0" r="1" gradientUnits="userSpaceOnUse" gradientTransform="translate(277.5 291) rotate(90) scale(54 54)">
<stop stop-color="#2D3036"/>
<stop offset="1" stop-color="#1B1D21" stop-opacity="0"/>
</radialGradient>
<radialGradient id="paint17_radial_3188_58943" cx="0" cy="0" r="1" gradientUnits="userSpaceOnUse" gradientTransform="translate(277 290.5) rotate(-180) scale(54 54)">
<stop stop-color="#2D3036"/>
<stop offset="1" stop-color="#1B1D21" stop-opacity="0"/>
</radialGradient>
<radialGradient id="paint18_radial_3188_58943" cx="0" cy="0" r="1" gradientUnits="userSpaceOnUse" gradientTransform="translate(192.5 291) rotate(90) scale(54 54)">
<stop stop-color="#2D3036"/>
<stop offset="1" stop-color="#1B1D21" stop-opacity="0"/>
</radialGradient>
<radialGradient id="paint19_radial_3188_58943" cx="0" cy="0" r="1" gradientUnits="userSpaceOnUse" gradientTransform="translate(192 290.5) rotate(-180) scale(54 54)">
<stop stop-color="#2D3036"/>
<stop offset="1" stop-color="#1B1D21" stop-opacity="0"/>
</radialGradient>
<radialGradient id="paint20_radial_3188_58943" cx="0" cy="0" r="1" gradientUnits="userSpaceOnUse" gradientTransform="translate(107.5 291) rotate(90) scale(54 54)">
<stop stop-color="#2D3036"/>
<stop offset="1" stop-color="#1B1D21" stop-opacity="0"/>
</radialGradient>
<radialGradient id="paint21_radial_3188_58943" cx="0" cy="0" r="1" gradientUnits="userSpaceOnUse" gradientTransform="translate(107 290.5) rotate(-180) scale(54 54)">
<stop stop-color="#2D3036"/>
<stop offset="1" stop-color="#1B1D21" stop-opacity="0"/>
</radialGradient>
<radialGradient id="paint22_radial_3188_58943" cx="0" cy="0" r="1" gradientUnits="userSpaceOnUse" gradientTransform="translate(22.5 291) rotate(90) scale(54 54)">
<stop stop-color="#2D3036"/>
<stop offset="1" stop-color="#1B1D21" stop-opacity="0"/>
</radialGradient>
<radialGradient id="paint23_radial_3188_58943" cx="0" cy="0" r="1" gradientUnits="userSpaceOnUse" gradientTransform="translate(22 290.5) rotate(-180) scale(54 54)">
<stop stop-color="#2D3036"/>
<stop offset="1" stop-color="#1B1D21" stop-opacity="0"/>
</radialGradient>
<clipPath id="clip0_3188_58943">
<rect width="469" height="336" fill="white"/>
</clipPath>
</defs>
</svg>
