<svg width="469" height="480" viewBox="0 0 469 480" fill="none" xmlns="http://www.w3.org/2000/svg">
<g clip-path="url(#clip0_3176_80508)">
<path d="M-92.5 338.258L238.957 142.458L560.199 328.043L228.742 523.843L-92.5 338.258Z" fill="white"/>
<path d="M393.765 295.753H393.825V295.738H393.765V295.753Z" fill="black"/>
<path d="M393.765 295.753H233.835V425.156C239.347 425.05 245.041 423.642 249.554 421.052L386.617 341.926C391.114 339.337 393.537 336.02 393.765 332.855V295.753Z" fill="black"/>
<path d="M73.9043 295.83V295.769L73.8438 295.83H73.9043Z" fill="black"/>
<path d="M73.9043 295.83V332.871C73.6772 335.794 75.3127 338.671 78.9168 340.761L220.205 422.355C223.809 424.445 228.701 425.399 233.834 425.232V295.83H73.9043Z" fill="black"/>
<path d="M220.27 385.182L78.9812 303.588C71.4398 299.257 72.3938 291.655 81.071 286.642L218.134 207.517C226.811 202.504 239.926 201.944 247.467 206.275L388.755 287.869C396.297 292.2 395.343 299.802 386.666 304.815L249.602 383.94C240.925 388.953 227.811 389.513 220.27 385.182Z" fill="white"/>
<path d="M148.124 311.133L130.558 301.002V300.989C128.277 299.659 127.162 297.883 127.172 296.03C127.16 293.798 128.784 291.449 131.966 289.629L223.418 236.869C229.157 233.552 237.94 233.204 242.953 236.081L337.221 290.477C342.233 293.4 341.612 298.473 335.812 301.79L319.654 311.133L242.953 266.868C237.94 263.946 229.218 264.339 223.418 267.656L148.124 311.133Z" fill="black"/>
<path d="M226.948 292.059C221.239 295.86 218.68 300.873 219.255 305.734C223.814 303.599 229.189 302.266 234.808 301.902C238.639 301.6 242.516 301.63 246.317 301.993L248.543 302.251C248.891 302.296 249.164 302.463 249.239 302.69L249.709 304.113C250.405 306.552 250.572 309.05 250.224 311.534C249.86 315.168 247.967 318.682 244.787 321.695C252.329 321.907 260.006 320.09 265.7 316.289C276.21 309.293 276.043 298.177 265.337 291.499C254.63 284.805 237.443 285.063 226.933 292.059H226.948Z" fill="black"/>
<path fill-rule="evenodd" clip-rule="evenodd" d="M243.547 305.055C238.55 304.767 228.131 304.812 220.393 309.31C220.34 309.34 220.291 309.371 220.242 309.401C220.192 309.431 220.143 309.462 220.09 309.492C221.392 312.097 223.664 314.55 226.92 316.579C230.171 318.605 234.01 319.997 238.077 320.755C232.124 325.137 222.623 327.117 212.487 326.557L212.502 326.542C212.2 326.527 211.957 326.375 211.927 326.178C210.715 319.651 213.502 313.442 220.089 309.46C219.438 308.142 219.029 306.779 218.863 305.416C218.075 305.795 217.318 306.174 216.576 306.598C210.428 310.338 206.733 315.457 206.248 320.878C206.051 322.483 206.066 324.104 206.309 325.694V325.724C206.278 325.8 206.157 325.845 206.036 325.845C202.493 325.27 199.07 324.422 195.86 323.301H195.814C195.087 323.104 194.27 323.119 193.543 323.331C192.937 323.513 192.452 323.846 192.24 324.255C191.877 325.073 192.392 325.936 193.497 326.405H193.528C197.722 327.859 202.22 328.919 206.899 329.555C207.142 329.601 207.339 329.722 207.399 329.873C208.55 332.887 210.337 335.764 212.73 338.43L212.76 338.46L212.79 338.49C213.623 339.005 214.85 339.156 215.94 338.884C216.258 338.808 216.561 338.672 216.803 338.52C217.439 338.081 217.697 337.476 217.485 336.9V336.855L217.454 336.824C215.622 334.78 214.198 332.599 213.184 330.328V330.297C213.184 330.222 213.29 330.146 213.411 330.146C215.895 330.252 218.393 330.222 220.877 330.04C228.585 329.571 235.838 327.375 241.366 323.846C241.805 323.543 242.244 323.24 242.653 322.922C243.274 322.438 243.864 321.923 244.41 321.408C242.28 321.348 240.166 321.122 238.112 320.745C238.177 320.692 238.242 320.646 238.313 320.596L238.383 320.547C245.107 315.428 244.85 308.704 244.229 305.494C244.183 305.267 243.896 305.085 243.547 305.07V305.055ZM238.929 308.871C239.898 309.643 239.716 310.794 238.504 311.43C237.399 312.021 235.794 311.975 234.764 311.339C233.659 310.643 233.643 309.492 234.734 308.765C234.809 308.719 234.885 308.674 234.976 308.629C236.188 307.993 237.959 308.099 238.929 308.871Z" fill="black"/>
</g>
<defs>
<clipPath id="clip0_3176_80508">
<rect width="469" height="480" fill="white"/>
</clipPath>
</defs>
</svg>
