<svg width="469" height="336" viewBox="0 0 469 336" fill="none" xmlns="http://www.w3.org/2000/svg">
<g clip-path="url(#clip0_4395_75599)">
<rect x="230.998" y="159" width="6.70655" height="40.2396" fill="url(#paint0_linear_4395_75599)"/>
<rect x="230.998" y="209.301" width="6.70655" height="40.2396" fill="#E6E6E6"/>
<rect x="279.623" y="200.914" width="6.70659" height="40.2393" transform="rotate(90 279.623 200.914)" fill="#E6E6E6"/>
<rect x="229.322" y="200.914" width="6.70659" height="40.2393" transform="rotate(90 229.322 200.914)" fill="#E6E6E6"/>
<rect x="230.998" y="269.543" width="6.70655" height="40.2396" fill="url(#paint1_linear_4395_75599)"/>
<rect x="230.998" y="319.844" width="6.70655" height="40.2396" fill="url(#paint2_linear_4395_75599)"/>
<rect x="279.623" y="311.461" width="6.70659" height="40.2393" transform="rotate(90 279.623 311.461)" fill="#CCCCCC"/>
<rect x="229.322" y="311.461" width="6.70659" height="40.2393" transform="rotate(90 229.322 311.461)" fill="#CCCCCC"/>
<rect x="341.537" y="159" width="6.70655" height="40.2396" fill="url(#paint3_linear_4395_75599)"/>
<rect x="341.537" y="209.301" width="6.70655" height="40.2396" fill="#CCCCCC"/>
<rect x="390.162" y="200.914" width="6.70659" height="40.2393" transform="rotate(90 390.162 200.914)" fill="#CCCCCC"/>
<rect x="339.861" y="200.914" width="6.70659" height="40.2393" transform="rotate(90 339.861 200.914)" fill="url(#paint4_linear_4395_75599)"/>
<rect x="341.537" y="269.543" width="6.70655" height="40.2396" fill="#CCCCCC"/>
<rect x="341.537" y="319.844" width="6.70655" height="40.2396" fill="url(#paint5_linear_4395_75599)"/>
<rect x="390.162" y="311.461" width="6.70659" height="40.2393" transform="rotate(90 390.162 311.461)" fill="url(#paint6_linear_4395_75599)"/>
<rect x="339.861" y="311.461" width="6.70659" height="40.2393" transform="rotate(90 339.861 311.461)" fill="#CCCCCC"/>
<rect x="120.459" y="159" width="6.70655" height="40.2396" fill="url(#paint7_linear_4395_75599)"/>
<rect x="120.459" y="209.301" width="6.70655" height="40.2396" fill="#CCCCCC"/>
<rect x="169.084" y="200.914" width="6.70659" height="40.2393" transform="rotate(90 169.084 200.914)" fill="#E6E6E6"/>
<rect x="118.783" y="200.914" width="6.70659" height="40.2393" transform="rotate(90 118.783 200.914)" fill="#CCCCCC"/>
<rect x="120.459" y="269.543" width="6.70655" height="40.2396" fill="#CCCCCC"/>
<rect x="120.459" y="319.844" width="6.70655" height="40.2396" fill="url(#paint8_linear_4395_75599)"/>
<rect x="169.084" y="311.461" width="6.70659" height="40.2393" transform="rotate(90 169.084 311.461)" fill="#CCCCCC"/>
<rect x="118.783" y="311.461" width="6.70659" height="40.2393" transform="rotate(90 118.783 311.461)" fill="url(#paint9_linear_4395_75599)"/>
<rect x="9.91602" y="159.004" width="6.70655" height="40.2396" fill="url(#paint10_linear_4395_75599)"/>
<rect x="9.91602" y="209.305" width="6.70655" height="40.2396" fill="url(#paint11_linear_4395_75599)"/>
<rect x="58.541" y="200.922" width="6.70659" height="40.2393" transform="rotate(90 58.541 200.922)" fill="#CCCCCC"/>
<rect x="8.24023" y="200.922" width="6.70659" height="40.2393" transform="rotate(90 8.24023 200.922)" fill="#CCCCCC"/>
<rect x="9.91602" y="269.543" width="6.70655" height="40.2396" fill="url(#paint12_linear_4395_75599)"/>
<rect x="9.91602" y="319.844" width="6.70655" height="40.2396" fill="url(#paint13_linear_4395_75599)"/>
<rect x="58.541" y="311.461" width="6.70659" height="40.2393" transform="rotate(90 58.541 311.461)" fill="url(#paint14_linear_4395_75599)"/>
<rect x="8.24023" y="311.461" width="6.70659" height="40.2393" transform="rotate(90 8.24023 311.461)" fill="url(#paint15_linear_4395_75599)"/>
<rect x="452.08" y="159" width="6.70655" height="40.2396" fill="url(#paint16_linear_4395_75599)"/>
<rect x="452.08" y="209.301" width="6.70655" height="40.2396" fill="url(#paint17_linear_4395_75599)"/>
<rect x="500.705" y="200.914" width="6.70659" height="40.2393" transform="rotate(90 500.705 200.914)" fill="#CCCCCC"/>
<rect x="450.404" y="200.914" width="6.70659" height="40.2393" transform="rotate(90 450.404 200.914)" fill="#CCCCCC"/>
<rect x="452.08" y="269.543" width="6.70655" height="40.2396" fill="url(#paint18_linear_4395_75599)"/>
<rect x="452.08" y="319.844" width="6.70655" height="40.2396" fill="url(#paint19_linear_4395_75599)"/>
<rect x="500.705" y="311.461" width="6.70659" height="40.2393" transform="rotate(90 500.705 311.461)" fill="url(#paint20_linear_4395_75599)"/>
<rect x="450.404" y="311.461" width="6.70659" height="40.2393" transform="rotate(90 450.404 311.461)" fill="url(#paint21_linear_4395_75599)"/>
<path d="M278.207 180.368V245.72H190.207V180.368H278.207Z" fill="#CCCCCC"/>
<path d="M250.159 211.949L190.207 180.368V245.72H190.217L250.159 277.297V211.949Z" fill="black"/>
</g>
<defs>
<linearGradient id="paint0_linear_4395_75599" x1="234.351" y1="159" x2="234.351" y2="199.24" gradientUnits="userSpaceOnUse">
<stop stop-color="#E6E6E6" stop-opacity="0"/>
<stop offset="1" stop-color="#E6E6E6"/>
</linearGradient>
<linearGradient id="paint1_linear_4395_75599" x1="234.351" y1="269.543" x2="234.351" y2="309.783" gradientUnits="userSpaceOnUse">
<stop stop-color="#E6E6E6" stop-opacity="0"/>
<stop offset="1" stop-color="#E6E6E6"/>
</linearGradient>
<linearGradient id="paint2_linear_4395_75599" x1="234.351" y1="319.844" x2="234.351" y2="360.083" gradientUnits="userSpaceOnUse">
<stop stop-color="#E6E6E6"/>
<stop offset="1" stop-color="#E6E6E6" stop-opacity="0"/>
</linearGradient>
<linearGradient id="paint3_linear_4395_75599" x1="344.89" y1="159" x2="344.89" y2="199.24" gradientUnits="userSpaceOnUse">
<stop stop-color="#E6E6E6" stop-opacity="0"/>
<stop offset="1" stop-color="#E6E6E6"/>
</linearGradient>
<linearGradient id="paint4_linear_4395_75599" x1="343.215" y1="200.914" x2="343.215" y2="241.153" gradientUnits="userSpaceOnUse">
<stop stop-color="#E6E6E6"/>
<stop offset="1" stop-color="#E6E6E6" stop-opacity="0"/>
</linearGradient>
<linearGradient id="paint5_linear_4395_75599" x1="344.89" y1="319.844" x2="344.89" y2="360.083" gradientUnits="userSpaceOnUse">
<stop stop-color="#E6E6E6"/>
<stop offset="1" stop-color="#E6E6E6" stop-opacity="0"/>
</linearGradient>
<linearGradient id="paint6_linear_4395_75599" x1="393.515" y1="311.461" x2="393.515" y2="351.7" gradientUnits="userSpaceOnUse">
<stop stop-color="#E6E6E6" stop-opacity="0"/>
<stop offset="1" stop-color="#E6E6E6"/>
</linearGradient>
<linearGradient id="paint7_linear_4395_75599" x1="123.812" y1="159" x2="123.812" y2="199.24" gradientUnits="userSpaceOnUse">
<stop stop-color="#E6E6E6" stop-opacity="0"/>
<stop offset="1" stop-color="#E6E6E6"/>
</linearGradient>
<linearGradient id="paint8_linear_4395_75599" x1="123.812" y1="319.844" x2="123.812" y2="360.083" gradientUnits="userSpaceOnUse">
<stop stop-color="#E6E6E6"/>
<stop offset="1" stop-color="#E6E6E6" stop-opacity="0"/>
</linearGradient>
<linearGradient id="paint9_linear_4395_75599" x1="122.137" y1="311.461" x2="122.137" y2="351.7" gradientUnits="userSpaceOnUse">
<stop stop-color="#E6E6E6"/>
<stop offset="1" stop-color="#E6E6E6" stop-opacity="0"/>
</linearGradient>
<linearGradient id="paint10_linear_4395_75599" x1="13.2693" y1="159.004" x2="13.2693" y2="199.243" gradientUnits="userSpaceOnUse">
<stop stop-color="#E6E6E6" stop-opacity="0"/>
<stop offset="1" stop-color="#E6E6E6"/>
</linearGradient>
<linearGradient id="paint11_linear_4395_75599" x1="13.2693" y1="209.305" x2="13.2693" y2="249.544" gradientUnits="userSpaceOnUse">
<stop stop-color="#E6E6E6"/>
<stop offset="1" stop-color="#E6E6E6" stop-opacity="0"/>
</linearGradient>
<linearGradient id="paint12_linear_4395_75599" x1="13.2693" y1="269.543" x2="13.2693" y2="309.783" gradientUnits="userSpaceOnUse">
<stop stop-color="#E6E6E6" stop-opacity="0"/>
<stop offset="1" stop-color="#E6E6E6"/>
</linearGradient>
<linearGradient id="paint13_linear_4395_75599" x1="13.2693" y1="319.844" x2="13.2693" y2="360.083" gradientUnits="userSpaceOnUse">
<stop stop-color="#E6E6E6"/>
<stop offset="1" stop-color="#E6E6E6" stop-opacity="0"/>
</linearGradient>
<linearGradient id="paint14_linear_4395_75599" x1="61.8943" y1="311.461" x2="61.8943" y2="351.7" gradientUnits="userSpaceOnUse">
<stop stop-color="#E6E6E6" stop-opacity="0"/>
<stop offset="1" stop-color="#E6E6E6"/>
</linearGradient>
<linearGradient id="paint15_linear_4395_75599" x1="11.5935" y1="311.461" x2="11.5935" y2="351.7" gradientUnits="userSpaceOnUse">
<stop stop-color="#E6E6E6"/>
<stop offset="1" stop-color="#E6E6E6" stop-opacity="0"/>
</linearGradient>
<linearGradient id="paint16_linear_4395_75599" x1="455.433" y1="159" x2="455.433" y2="199.24" gradientUnits="userSpaceOnUse">
<stop stop-color="#E6E6E6" stop-opacity="0"/>
<stop offset="1" stop-color="#E6E6E6"/>
</linearGradient>
<linearGradient id="paint17_linear_4395_75599" x1="455.433" y1="209.301" x2="455.433" y2="249.54" gradientUnits="userSpaceOnUse">
<stop stop-color="#E6E6E6"/>
<stop offset="1" stop-color="#E6E6E6" stop-opacity="0"/>
</linearGradient>
<linearGradient id="paint18_linear_4395_75599" x1="455.433" y1="269.543" x2="455.433" y2="309.783" gradientUnits="userSpaceOnUse">
<stop stop-color="#E6E6E6" stop-opacity="0"/>
<stop offset="1" stop-color="#E6E6E6"/>
</linearGradient>
<linearGradient id="paint19_linear_4395_75599" x1="455.433" y1="319.844" x2="455.433" y2="360.083" gradientUnits="userSpaceOnUse">
<stop stop-color="#E6E6E6"/>
<stop offset="1" stop-color="#E6E6E6" stop-opacity="0"/>
</linearGradient>
<linearGradient id="paint20_linear_4395_75599" x1="504.058" y1="311.461" x2="504.058" y2="351.7" gradientUnits="userSpaceOnUse">
<stop stop-color="#E6E6E6" stop-opacity="0"/>
<stop offset="1" stop-color="#E6E6E6"/>
</linearGradient>
<linearGradient id="paint21_linear_4395_75599" x1="453.758" y1="311.461" x2="453.758" y2="351.7" gradientUnits="userSpaceOnUse">
<stop stop-color="#E6E6E6"/>
<stop offset="1" stop-color="#E6E6E6" stop-opacity="0"/>
</linearGradient>
<clipPath id="clip0_4395_75599">
<rect width="469" height="336" fill="white"/>
</clipPath>
</defs>
</svg>
