<svg width="469" height="480" viewBox="0 0 469 480" fill="none" xmlns="http://www.w3.org/2000/svg">
<g clip-path="url(#clip0_3205_55521)">
<rect x="32.5" y="192.5" width="437" height="307" fill="white"/>
<rect x="32.5" y="192.5" width="437" height="307" stroke="#E6E6E6"/>
<rect width="80" height="24" transform="translate(44 204)" fill="#F5F5F5"/>
<path d="M56.8079 220L54.6739 212.978H55.913L57.0931 217.296C57.139 217.433 57.1849 217.6 57.2308 217.797C57.2766 217.987 57.3193 218.177 57.3586 218.368C57.3979 218.558 57.4307 218.728 57.4569 218.879H57.5258C57.552 218.728 57.5815 218.558 57.6143 218.368C57.6536 218.177 57.6962 217.987 57.7421 217.797C57.788 217.6 57.8274 217.43 57.8601 217.286L59.0009 212.978H60.2597L58.1453 220H56.8079ZM60.5509 220L62.6161 212.949H64.101L66.1761 220H64.9468L63.6585 215.201C63.6323 215.076 63.5995 214.948 63.5602 214.817C63.5274 214.686 63.4946 214.549 63.4618 214.404C63.429 214.26 63.3963 214.116 63.3635 213.972C63.3307 214.116 63.2979 214.26 63.2651 214.404C63.2324 214.549 63.1996 214.69 63.1668 214.827C63.134 214.958 63.098 215.083 63.0586 215.201L61.7507 220H60.5509ZM62.0162 218.102L62.3112 217.069H64.4157L64.5928 218.102H62.0162ZM67.2835 220V212.978H68.5128V218.908H71.463V220H67.2835ZM73.1704 220V219.154L74.5472 219.007V213.972L73.1704 213.824V212.978H77.1434V213.824L75.7371 213.972V219.007L77.1434 219.154V220H73.1704ZM78.6344 220V212.978H80.6307C81.247 212.978 81.7813 213.109 82.2337 213.372C82.6861 213.627 83.0335 214.011 83.2761 214.522C83.5252 215.034 83.6498 215.67 83.6498 216.43C83.6498 217.204 83.522 217.856 83.2663 218.387C83.0171 218.918 82.6566 219.321 82.1845 219.597C81.7125 219.866 81.1486 220 80.493 220H78.6344ZM80.4143 218.958C81.1027 218.958 81.6076 218.748 81.9288 218.328C82.2501 217.909 82.4107 217.279 82.4107 216.44C82.4107 215.883 82.3386 215.427 82.1943 215.073C82.0501 214.712 81.8403 214.447 81.565 214.276C81.2962 214.106 80.9585 214.021 80.552 214.021H79.844V218.958H80.4143ZM84.1377 220L86.2029 212.949H87.6878L89.7629 220H88.5336L87.2453 215.201C87.2191 215.076 87.1863 214.948 87.147 214.817C87.1142 214.686 87.0814 214.549 87.0486 214.404C87.0158 214.26 86.9831 214.116 86.9503 213.972C86.9175 214.116 86.8847 214.26 86.8519 214.404C86.8191 214.549 86.7864 214.69 86.7536 214.827C86.7208 214.958 86.6847 215.083 86.6454 215.201L85.3375 220H84.1377ZM85.603 218.102L85.898 217.069H88.0025L88.1795 218.102H85.603ZM92.2372 220V214.04H90.2507V212.978H95.4432V214.04H93.4567V220H92.2372ZM98.7437 220.098C98.2913 220.098 97.9012 220.016 97.5734 219.852C97.2456 219.682 96.9768 219.439 96.767 219.125C96.5572 218.81 96.3998 218.43 96.2949 217.984C96.1966 217.538 96.1474 217.037 96.1474 216.479C96.1474 215.738 96.2392 215.096 96.4228 214.552C96.6064 214.008 96.8883 213.591 97.2685 213.303C97.6553 213.008 98.1471 212.86 98.7437 212.86C99.196 212.86 99.5861 212.946 99.9139 213.116C100.242 213.28 100.511 213.519 100.72 213.834C100.93 214.149 101.084 214.529 101.183 214.975C101.287 215.421 101.34 215.922 101.34 216.479C101.34 217.037 101.287 217.538 101.183 217.984C101.084 218.43 100.93 218.81 100.72 219.125C100.511 219.439 100.238 219.682 99.9041 219.852C99.5763 220.016 99.1895 220.098 98.7437 220.098ZM98.7437 219.036C99.0715 219.036 99.3337 218.938 99.5304 218.741C99.7271 218.545 99.8713 218.256 99.9631 217.876C100.055 217.496 100.101 217.027 100.101 216.47C100.101 215.65 99.9959 215.021 99.7861 214.581C99.5829 214.142 99.2387 213.922 98.7535 213.922C98.4257 213.922 98.1602 214.021 97.9569 214.217C97.7602 214.414 97.616 214.703 97.5242 215.083C97.4324 215.463 97.3865 215.929 97.3865 216.479C97.3865 217.03 97.4324 217.496 97.5242 217.876C97.616 218.256 97.7602 218.545 97.9569 218.741C98.1602 218.938 98.4224 219.036 98.7437 219.036ZM102.536 220V212.978H104.326C104.876 212.978 105.339 213.06 105.712 213.224C106.086 213.382 106.368 213.614 106.558 213.922C106.748 214.224 106.843 214.594 106.843 215.034C106.843 215.368 106.791 215.663 106.686 215.919C106.581 216.168 106.433 216.378 106.243 216.548C106.06 216.719 105.847 216.86 105.604 216.971L107.384 220H106.066L104.522 217.266H103.755V220H102.536ZM104.296 216.224C104.598 216.224 104.844 216.181 105.034 216.096C105.224 216.011 105.365 215.886 105.457 215.722C105.555 215.552 105.604 215.339 105.604 215.083C105.604 214.69 105.493 214.414 105.27 214.257C105.053 214.099 104.719 214.021 104.267 214.021H103.755V216.224H104.296ZM110.311 220.098C109.95 220.098 109.596 220.066 109.249 220C108.901 219.928 108.596 219.826 108.334 219.695V218.584C108.649 218.735 108.977 218.856 109.318 218.948C109.665 219.033 110.009 219.076 110.35 219.076C110.619 219.076 110.848 219.043 111.039 218.977C111.235 218.912 111.383 218.81 111.481 218.672C111.586 218.528 111.639 218.345 111.639 218.122C111.639 217.905 111.586 217.735 111.481 217.61C111.376 217.486 111.212 217.368 110.989 217.256C110.767 217.145 110.481 217.004 110.134 216.833C109.845 216.689 109.573 216.529 109.318 216.351C109.062 216.174 108.855 215.958 108.698 215.702C108.547 215.447 108.472 215.129 108.472 214.749C108.472 214.335 108.567 213.991 108.757 213.716C108.947 213.441 109.213 213.234 109.554 213.096C109.895 212.952 110.294 212.88 110.753 212.88C111.062 212.88 111.393 212.916 111.747 212.988C112.101 213.054 112.438 213.162 112.76 213.313L112.366 214.276C112.084 214.152 111.809 214.06 111.54 214.001C111.271 213.942 111.022 213.913 110.793 213.913C110.57 213.913 110.376 213.945 110.213 214.011C110.055 214.07 109.934 214.165 109.849 214.296C109.763 214.427 109.721 214.594 109.721 214.798C109.721 215.001 109.767 215.168 109.859 215.299C109.957 215.424 110.101 215.539 110.291 215.643C110.488 215.742 110.734 215.863 111.029 216.007C111.416 216.184 111.747 216.361 112.022 216.538C112.297 216.709 112.51 216.912 112.661 217.148C112.812 217.384 112.887 217.692 112.887 218.072C112.887 218.407 112.828 218.699 112.71 218.948C112.592 219.197 112.422 219.41 112.199 219.587C111.976 219.757 111.707 219.885 111.393 219.97C111.078 220.056 110.717 220.098 110.311 220.098Z" fill="black"/>
<rect x="140" y="212" width="55" height="8" fill="#E6E6E6"/>
<rect x="211" y="212" width="55" height="8" fill="#E6E6E6"/>
<rect x="282" y="212" width="55" height="8" fill="#E6E6E6"/>
<rect x="353" y="212" width="55" height="8" fill="#E6E6E6"/>
<rect x="44.5" y="236.5" width="86" height="27" stroke="#E6E6E6"/>
<rect x="60" y="246" width="55" height="8" fill="#E6E6E6"/>
<rect x="130.5" y="236.5" width="64" height="27" stroke="#E6E6E6"/>
<rect x="158.5" y="246" width="8" height="8" rx="4" fill="#E5FA94"/>
<rect x="194.5" y="236.5" width="275" height="27" stroke="#E6E6E6"/>
<rect x="210" y="246" width="244" height="8" fill="#E6E6E6"/>
<rect x="44.5" y="263.5" width="86" height="27" stroke="#E6E6E6"/>
<rect x="60" y="273" width="55" height="8" fill="#E6E6E6"/>
<rect x="130.5" y="263.5" width="64" height="27" stroke="#E6E6E6"/>
<rect x="158.5" y="273" width="8" height="8" rx="4" fill="#E5FA94"/>
<rect x="194.5" y="263.5" width="275" height="27" stroke="#E6E6E6"/>
<rect x="210" y="273" width="244" height="8" fill="#E6E6E6"/>
<rect x="44.5" y="290.5" width="86" height="27" stroke="#E6E6E6"/>
<rect x="60" y="300" width="55" height="8" fill="#E6E6E6"/>
<rect x="130.5" y="290.5" width="64" height="27" stroke="#E6E6E6"/>
<rect x="158.5" y="300" width="8" height="8" rx="4" fill="#E5FA94"/>
<rect x="194.5" y="290.5" width="275" height="27" stroke="#E6E6E6"/>
<rect x="210" y="300" width="244" height="8" fill="#E6E6E6"/>
<rect x="44.5" y="317.5" width="86" height="27" stroke="#E6E6E6"/>
<rect x="60" y="327" width="55" height="8" fill="#E6E6E6"/>
<rect x="130.5" y="317.5" width="64" height="27" stroke="#E6E6E6"/>
<rect x="158.5" y="327" width="8" height="8" rx="4" fill="#E5FA94"/>
<rect x="194.5" y="317.5" width="275" height="27" stroke="#E6E6E6"/>
<rect x="210" y="327" width="244" height="8" fill="#E6E6E6"/>
<rect x="44.5" y="344.5" width="86" height="27" stroke="#E6E6E6"/>
<rect x="60" y="354" width="55" height="8" fill="#E6E6E6"/>
<rect x="130.5" y="344.5" width="64" height="27" stroke="#E6E6E6"/>
<rect x="158.5" y="354" width="8" height="8" rx="4" fill="#E5FA94"/>
<rect x="194.5" y="344.5" width="275" height="27" stroke="#E6E6E6"/>
<rect x="210" y="354" width="244" height="8" fill="#E6E6E6"/>
<rect x="44.5" y="371.5" width="86" height="27" stroke="#E6E6E6"/>
<rect x="60" y="381" width="55" height="8" fill="#E6E6E6"/>
<rect x="130.5" y="371.5" width="64" height="27" stroke="#E6E6E6"/>
<rect x="158.5" y="381" width="8" height="8" rx="4" fill="#E5FA94"/>
<rect x="194.5" y="371.5" width="275" height="27" stroke="#E6E6E6"/>
<rect x="210" y="381" width="244" height="8" fill="#E6E6E6"/>
<rect x="44.5" y="398.5" width="86" height="27" stroke="#E6E6E6"/>
<rect x="60" y="408" width="55" height="8" fill="#E6E6E6"/>
<rect x="130.5" y="398.5" width="64" height="27" stroke="#E6E6E6"/>
<rect x="158.5" y="408" width="8" height="8" rx="4" fill="#E5FA94"/>
<rect x="194.5" y="398.5" width="275" height="27" stroke="#E6E6E6"/>
<rect x="210" y="408" width="244" height="8" fill="#E6E6E6"/>
<rect x="44.5" y="425.5" width="86" height="27" stroke="#E6E6E6"/>
<rect x="60" y="435" width="55" height="8" fill="#E6E6E6"/>
<rect x="130.5" y="425.5" width="64" height="27" stroke="#E6E6E6"/>
<rect x="158.5" y="435" width="8" height="8" rx="4" fill="#E5FA94"/>
<rect x="194.5" y="425.5" width="275" height="27" stroke="#E6E6E6"/>
<rect x="210" y="435" width="244" height="8" fill="#E6E6E6"/>
<rect x="44.5" y="452.5" width="86" height="27" stroke="#E6E6E6"/>
<rect x="60" y="462" width="55" height="8" fill="#E6E6E6"/>
<rect x="130.5" y="452.5" width="64" height="27" stroke="#E6E6E6"/>
<rect x="158.5" y="462" width="8" height="8" rx="4" fill="#E5FA94"/>
<rect x="194.5" y="452.5" width="275" height="27" stroke="#E6E6E6"/>
<rect x="210" y="462" width="244" height="8" fill="#E6E6E6"/>
<rect x="44.5" y="479.5" width="86" height="27" stroke="#E6E6E6"/>
<rect x="130.5" y="479.5" width="64" height="27" stroke="#E6E6E6"/>
<rect x="194.5" y="479.5" width="275" height="27" stroke="#E6E6E6"/>
</g>
<defs>
<clipPath id="clip0_3205_55521">
<rect width="469" height="480" fill="white"/>
</clipPath>
</defs>
</svg>
