<svg width="469" height="336" viewBox="0 0 469 336" fill="none" xmlns="http://www.w3.org/2000/svg">
<g clip-path="url(#clip0_4395_75661)">
<path d="M133 190L32 248V226L133 168V190Z" fill="#E7E1FF"/>
<path d="M133 190L32 248V346L133 288V190Z" fill="white"/>
<path d="M133 358L32 416V346L133 288V358Z" fill="black"/>
<path d="M221 190L120 248V226L221 168V190Z" fill="#E7E1FF"/>
<path d="M221 190L120 248V346L221 288V190Z" fill="white"/>
<path d="M221 358L120 416V346L221 288V358Z" fill="black"/>
<path d="M309 190L208 248V226L309 168V190Z" fill="#E7E1FF"/>
<path d="M309 190L208 248V346L309 288V190Z" fill="white"/>
<path d="M309 358L208 416V346L309 288V358Z" fill="black"/>
<path d="M397 190L296 248V226L397 168V190Z" fill="#E7E1FF"/>
<path d="M397 190L296 248V346L397 288V190Z" fill="white"/>
<path d="M397 358L296 416V346L397 288V358Z" fill="black"/>
<path d="M485 190L384 248V226L485 168V190Z" fill="#E7E1FF"/>
<path d="M485 190L384 248V346L485 288V190Z" fill="white"/>
<path d="M485 358L384 416V346L485 288V358Z" fill="black"/>
</g>
<defs>
<clipPath id="clip0_4395_75661">
<rect width="469" height="336" fill="white"/>
</clipPath>
</defs>
</svg>
